<?xml version="1.0" encoding="us-ascii" standalone="no"?><svg xmlns="http://www.w3.org/2000/svg" xmlns:xlink="http://www.w3.org/1999/xlink" contentStyleType="text/css" height="1033px" preserveAspectRatio="none" style="width:1022px;height:1033px;background:#000000;" version="1.1" viewBox="0 0 1022 1033" width="1022px" zoomAndPan="magnify"><defs/><g><path d="M19.5,7 L996.2,7 A12.5,12.5 0 0 1 1008.7,19.5 L1008.7,33.4883 L7,33.4883 L7,19.5 A12.5,12.5 0 0 1 19.5,7 " fill="#000000" style="stroke:#000000;stroke-width:1.0;"/><rect fill="none" height="1020.5234" rx="12.5" ry="12.5" style="stroke:#FFFFFF;stroke-width:0.5;" width="1001.7" x="7" y="7"/><line style="stroke:#FFFFFF;stroke-width:0.5;" x1="7" x2="1008.7" y1="33.4883" y2="33.4883"/><text fill="#FFFFFF" font-family="sans-serif" font-size="14" lengthAdjust="spacing" textLength="157" x="429.35" y="25.5352">CompleteStateMachine</text><!--cluster CompleteStateMachine_region_region_0_s1--><g id="cluster_CompleteStateMachine_region_region_0_s1"><path d="M136.2,174.4883 L451.2,174.4883 A12.5,12.5 0 0 1 463.7,186.9883 L463.7,195.9766 L123.7,195.9766 L123.7,186.9883 A12.5,12.5 0 0 1 136.2,174.4883 " fill="#000000" style="stroke:#000000;stroke-width:1.0;"/><rect fill="none" height="330" rx="12.5" ry="12.5" style="stroke:#FFFFFF;stroke-width:0.5;" width="340" x="123.7" y="174.4883"/><line style="stroke:#FFFFFF;stroke-width:0.5;" x1="123.7" x2="463.7" y1="195.9766" y2="195.9766"/><text fill="#FFFFFF" font-family="sans-serif" font-size="14" lengthAdjust="spacing" textLength="16" x="285.7" y="192.0234">s1</text></g><!--cluster CompleteStateMachine_region_region_0_s1_r1--><g id="cluster_CompleteStateMachine_region_region_0_s1_r1"><path d="M184.2,261.4883 L265.2,261.4883 A12.5,12.5 0 0 1 277.7,273.9883 L277.7,282.9766 L171.7,282.9766 L171.7,273.9883 A12.5,12.5 0 0 1 184.2,261.4883 " fill="#000000" style="stroke:#000000;stroke-width:1.0;"/><rect fill="none" height="203" rx="12.5" ry="12.5" style="stroke:#FFFFFF;stroke-width:0.5;" width="106" x="171.7" y="261.4883"/><line style="stroke:#FFFFFF;stroke-width:0.5;" x1="171.7" x2="277.7" y1="282.9766" y2="282.9766"/><text fill="#FFFFFF" font-family="sans-serif" font-size="14" lengthAdjust="spacing" textLength="15" x="217.2" y="279.0234">r1</text></g><!--cluster CompleteStateMachine_region_region_0_s1_r2--><g id="cluster_CompleteStateMachine_region_region_0_s1_r2"><path d="M330.2,261.4883 L411.2,261.4883 A12.5,12.5 0 0 1 423.7,273.9883 L423.7,282.9766 L317.7,282.9766 L317.7,273.9883 A12.5,12.5 0 0 1 330.2,261.4883 " fill="#000000" style="stroke:#000000;stroke-width:1.0;"/><rect fill="none" height="203" rx="12.5" ry="12.5" style="stroke:#FFFFFF;stroke-width:0.5;" width="106" x="317.7" y="261.4883"/><line style="stroke:#FFFFFF;stroke-width:0.5;" x1="317.7" x2="423.7" y1="282.9766" y2="282.9766"/><text fill="#FFFFFF" font-family="sans-serif" font-size="14" lengthAdjust="spacing" textLength="15" x="363.2" y="279.0234">r2</text></g><!--cluster CompleteStateMachine_region_region_0_s2--><g id="cluster_CompleteStateMachine_region_region_0_s2"><path d="M508.2,329.4883 L987.2,329.4883 A12.5,12.5 0 0 1 999.7,341.9883 L999.7,350.9766 L495.7,350.9766 L495.7,341.9883 A12.5,12.5 0 0 1 508.2,329.4883 " fill="#000000" style="stroke:#000000;stroke-width:1.0;"/><rect fill="none" height="666" rx="12.5" ry="12.5" style="stroke:#FFFFFF;stroke-width:0.5;" width="504" x="495.7" y="329.4883"/><line style="stroke:#FFFFFF;stroke-width:0.5;" x1="495.7" x2="999.7" y1="350.9766" y2="350.9766"/><text fill="#FFFFFF" font-family="sans-serif" font-size="14" lengthAdjust="spacing" textLength="121" x="687.2" y="348.0234">s2&lt;submachine&gt;</text></g><!--cluster CompleteStateMachine_region_region_0_s2_submachine_region_region_0_s2--><g id="cluster_CompleteStateMachine_region_region_0_s2_submachine_region_region_0_s2"><path d="M556.2,607.4883 L947.2,607.4883 A12.5,12.5 0 0 1 959.7,619.9883 L959.7,628.9766 L543.7,628.9766 L543.7,619.9883 A12.5,12.5 0 0 1 556.2,607.4883 " fill="#000000" style="stroke:#000000;stroke-width:1.0;"/><rect fill="none" height="330" rx="12.5" ry="12.5" style="stroke:#FFFFFF;stroke-width:0.5;" width="416" x="543.7" y="607.4883"/><line style="stroke:#FFFFFF;stroke-width:0.5;" x1="543.7" x2="959.7" y1="628.9766" y2="628.9766"/><text fill="#FFFFFF" font-family="sans-serif" font-size="14" lengthAdjust="spacing" textLength="16" x="743.7" y="625.0234">s2</text></g><!--cluster CompleteStateMachine_region_region_0_s2_submachine_region_region_0_s2_r1--><g id="cluster_CompleteStateMachine_region_region_0_s2_submachine_region_region_0_s2_r1"><path d="M604.2,694.4883 L723.2,694.4883 A12.5,12.5 0 0 1 735.7,706.9883 L735.7,715.9766 L591.7,715.9766 L591.7,706.9883 A12.5,12.5 0 0 1 604.2,694.4883 " fill="#000000" style="stroke:#000000;stroke-width:1.0;"/><rect fill="none" height="203" rx="12.5" ry="12.5" style="stroke:#FFFFFF;stroke-width:0.5;" width="144" x="591.7" y="694.4883"/><line style="stroke:#FFFFFF;stroke-width:0.5;" x1="591.7" x2="735.7" y1="715.9766" y2="715.9766"/><text fill="#FFFFFF" font-family="sans-serif" font-size="14" lengthAdjust="spacing" textLength="15" x="656.2" y="712.0234">r1</text></g><!--cluster CompleteStateMachine_region_region_0_s2_submachine_region_region_0_s2_r2--><g id="cluster_CompleteStateMachine_region_region_0_s2_submachine_region_region_0_s2_r2"><path d="M788.2,694.4883 L907.2,694.4883 A12.5,12.5 0 0 1 919.7,706.9883 L919.7,715.9766 L775.7,715.9766 L775.7,706.9883 A12.5,12.5 0 0 1 788.2,694.4883 " fill="#000000" style="stroke:#000000;stroke-width:1.0;"/><rect fill="none" height="203" rx="12.5" ry="12.5" style="stroke:#FFFFFF;stroke-width:0.5;" width="144" x="775.7" y="694.4883"/><line style="stroke:#FFFFFF;stroke-width:0.5;" x1="775.7" x2="919.7" y1="715.9766" y2="715.9766"/><text fill="#FFFFFF" font-family="sans-serif" font-size="14" lengthAdjust="spacing" textLength="15" x="840.2" y="712.0234">r2</text></g><ellipse cx="252.7" cy="227.4883" fill="#FFFFFF" rx="10" ry="10" style="stroke:#222222;stroke-width:1.0;"/><g id="CompleteStateMachine.CompleteStateMachine_region_region_0_s1.CompleteStateMachine_region_region_0_s1_r1.CompleteStateMachine_region_region_0_s1_r1_s1"><rect fill="#000000" height="50" rx="12.5" ry="12.5" style="stroke:#FFFFFF;stroke-width:0.5;" width="50" x="203.7" y="304.4883"/><line style="stroke:#FFFFFF;stroke-width:0.5;" x1="203.7" x2="253.7" y1="330.9766" y2="330.9766"/><text fill="#FFFFFF" font-family="sans-serif" font-size="14" lengthAdjust="spacing" textLength="16" x="220.7" y="323.0234">s1</text></g><g id="CompleteStateMachine.CompleteStateMachine_region_region_0_s1.CompleteStateMachine_region_region_0_s1_r1.CompleteStateMachine_region_region_0_s1_r1_s2"><rect fill="#000000" height="50" rx="12.5" ry="12.5" style="stroke:#FFFFFF;stroke-width:0.5;" width="50" x="203.7" y="390.4883"/><line style="stroke:#FFFFFF;stroke-width:0.5;" x1="203.7" x2="253.7" y1="416.9766" y2="416.9766"/><text fill="#FFFFFF" font-family="sans-serif" font-size="14" lengthAdjust="spacing" textLength="16" x="220.7" y="409.0234">s2</text></g><g id="CompleteStateMachine.CompleteStateMachine_region_region_0_s1.CompleteStateMachine_region_region_0_s1_r2.CompleteStateMachine_region_region_0_s1_r2_s1"><rect fill="#000000" height="50" rx="12.5" ry="12.5" style="stroke:#FFFFFF;stroke-width:0.5;" width="50" x="349.7" y="304.4883"/><line style="stroke:#FFFFFF;stroke-width:0.5;" x1="349.7" x2="399.7" y1="330.9766" y2="330.9766"/><text fill="#FFFFFF" font-family="sans-serif" font-size="14" lengthAdjust="spacing" textLength="16" x="366.7" y="323.0234">s1</text></g><g id="CompleteStateMachine.CompleteStateMachine_region_region_0_s1.CompleteStateMachine_region_region_0_s1_r2.CompleteStateMachine_region_region_0_s1_r2_s2"><rect fill="#000000" height="50" rx="12.5" ry="12.5" style="stroke:#FFFFFF;stroke-width:0.5;" width="50" x="349.7" y="390.4883"/><line style="stroke:#FFFFFF;stroke-width:0.5;" x1="349.7" x2="399.7" y1="416.9766" y2="416.9766"/><text fill="#FFFFFF" font-family="sans-serif" font-size="14" lengthAdjust="spacing" textLength="16" x="366.7" y="409.0234">s2</text></g><ellipse cx="551.7" cy="573.4883" fill="#FFFFFF" rx="10" ry="10" style="stroke:#222222;stroke-width:1.0;"/><text fill="#FFFFFF" font-family="sans-serif" font-size="14" lengthAdjust="spacing" textLength="144" x="842.2" y="308.5352">entry_point_to_r2_s2</text><ellipse cx="914.2" cy="329.4883" fill="#000000" rx="6" ry="6" style="stroke:#FFFFFF;stroke-width:1.5;"/><text fill="#FFFFFF" font-family="sans-serif" font-size="14" lengthAdjust="spacing" textLength="222" x="610.7" y="308.5352">entry_point_to_r1_s2_and_r2_s1</text><ellipse cx="721.7" cy="329.4883" fill="#000000" rx="6" ry="6" style="stroke:#FFFFFF;stroke-width:1.5;"/><text fill="#FFFFFF" font-family="sans-serif" font-size="14" lengthAdjust="spacing" textLength="154" x="774.2" y="1015.0234">exit_point_from_r2_s2</text><ellipse cx="851.2" cy="995.4883" fill="#000000" rx="6" ry="6" style="stroke:#FFFFFF;stroke-width:1.5;"/><line style="stroke:#FFFFFF;stroke-width:1.5;" x1="855.5891" x2="847.8109" y1="999.8774" y2="992.0992"/><line style="stroke:#FFFFFF;stroke-width:1.5;" x1="855.5891" x2="847.8109" y1="992.0992" y2="999.8774"/><ellipse cx="628.7" cy="660.4883" fill="#FFFFFF" rx="10" ry="10" style="stroke:#222222;stroke-width:1.0;"/><g id="CompleteStateMachine.CompleteStateMachine_region_region_0_s2.CompleteStateMachine_region_region_0_s2_submachine_region_region_0_s2.CompleteStateMachine_region_region_0_s2_submachine_region_region_0_s2_r1.CompleteStateMachine_region_region_0_s2_submachine_region_region_0_s2_r1_s1"><rect fill="#000000" height="50" rx="12.5" ry="12.5" style="stroke:#FFFFFF;stroke-width:0.5;" width="50" x="623.7" y="823.4883"/><line style="stroke:#FFFFFF;stroke-width:0.5;" x1="623.7" x2="673.7" y1="849.9766" y2="849.9766"/><text fill="#FFFFFF" font-family="sans-serif" font-size="14" lengthAdjust="spacing" textLength="16" x="640.7" y="842.0234">s1</text></g><g id="CompleteStateMachine.CompleteStateMachine_region_region_0_s2.CompleteStateMachine_region_region_0_s2_submachine_region_region_0_s2.CompleteStateMachine_region_region_0_s2_submachine_region_region_0_s2_r1.CompleteStateMachine_region_region_0_s2_submachine_region_region_0_s2_r1_s2"><rect fill="#000000" height="50" rx="12.5" ry="12.5" style="stroke:#FFFFFF;stroke-width:0.5;" width="50" x="661.7" y="737.4883"/><line style="stroke:#FFFFFF;stroke-width:0.5;" x1="661.7" x2="711.7" y1="763.9766" y2="763.9766"/><text fill="#FFFFFF" font-family="sans-serif" font-size="14" lengthAdjust="spacing" textLength="16" x="678.7" y="756.0234">s2</text></g><ellipse cx="633.7" cy="762.4883" fill="#FFFFFF" rx="10" ry="10" style="stroke:#222222;stroke-width:1.0;"/><g id="CompleteStateMachine.CompleteStateMachine_region_region_0_s2.CompleteStateMachine_region_region_0_s2_submachine_region_region_0_s2.CompleteStateMachine_region_region_0_s2_submachine_region_region_0_s2_r2.CompleteStateMachine_region_region_0_s2_submachine_region_region_0_s2_r2_s1"><rect fill="#000000" height="50" rx="12.5" ry="12.5" style="stroke:#FFFFFF;stroke-width:0.5;" width="50" x="845.7" y="737.4883"/><line style="stroke:#FFFFFF;stroke-width:0.5;" x1="845.7" x2="895.7" y1="763.9766" y2="763.9766"/><text fill="#FFFFFF" font-family="sans-serif" font-size="14" lengthAdjust="spacing" textLength="16" x="862.7" y="756.0234">s1</text></g><g id="CompleteStateMachine.CompleteStateMachine_region_region_0_s2.CompleteStateMachine_region_region_0_s2_submachine_region_region_0_s2.CompleteStateMachine_region_region_0_s2_submachine_region_region_0_s2_r2.CompleteStateMachine_region_region_0_s2_submachine_region_region_0_s2_r2_s2"><rect fill="#000000" height="50" rx="12.5" ry="12.5" style="stroke:#FFFFFF;stroke-width:0.5;" width="50" x="826.7" y="823.4883"/><line style="stroke:#FFFFFF;stroke-width:0.5;" x1="826.7" x2="876.7" y1="849.9766" y2="849.9766"/><text fill="#FFFFFF" font-family="sans-serif" font-size="14" lengthAdjust="spacing" textLength="16" x="843.7" y="842.0234">s2</text></g><ellipse cx="817.7" cy="762.4883" fill="#FFFFFF" rx="10" ry="10" style="stroke:#222222;stroke-width:1.0;"/><g id="CompleteStateMachine.CompleteStateMachine_region_region_0_s0"><rect fill="#000000" height="50" rx="12.5" ry="12.5" style="stroke:#FFFFFF;stroke-width:0.5;" width="50" x="502.7" y="100.4883"/><line style="stroke:#FFFFFF;stroke-width:0.5;" x1="502.7" x2="552.7" y1="126.9766" y2="126.9766"/><text fill="#FFFFFF" font-family="sans-serif" font-size="14" lengthAdjust="spacing" textLength="16" x="519.7" y="119.0234">s0</text></g><ellipse cx="527.7" cy="54.4883" fill="#FFFFFF" rx="10" ry="10" style="stroke:#222222;stroke-width:1.0;"/><rect fill="#FFFFFF" height="8" style="stroke:none;stroke-width:1.0;" width="80" x="487.7" y="223.4883"/><rect fill="#FFFFFF" height="8" style="stroke:none;stroke-width:1.0;" width="80" x="19.7" y="411.4883"/><!--link *start*CompleteStateMachine_region_region_0_s1 to CompleteStateMachine_region_region_0_s1_r1--><g id="link_*start*CompleteStateMachine_region_region_0_s1_CompleteStateMachine_region_region_0_s1_r1"><path d="M244.32,233.4883 C225.15,233.4883 179.7,233.4883 179.7,233.4883 C179.7,233.4883 179.7,238.9389 179.7,247.2427 C179.7,249.3186 179.7,251.5729 179.7,253.9648 C179.7,255.1608 179.7,256.3913 179.7,257.6511 C179.7,258.281 179.7,258.9182 179.7,259.5621 C179.7,259.8841 179.7,260.2077 179.7,260.533 C179.7,260.6956 179.7,254.8586 179.7,255.022 " fill="none" id="*start*CompleteStateMachine_region_region_0_s1-to-CompleteStateMachine_region_region_0_s1_r1" style="stroke:#FFFFFF;stroke-width:1.0;"/><polygon fill="#FFFFFF" points="179.7,261.022,183.7,252.022,179.7,256.022,175.7,252.022,179.7,261.022" style="stroke:#FFFFFF;stroke-width:1.0;"/></g><!--link *start*CompleteStateMachine_region_region_0_s1 to CompleteStateMachine_region_region_0_s1_r2--><g id="link_*start*CompleteStateMachine_region_region_0_s1_CompleteStateMachine_region_region_0_s1_r2"><path d="M258.2,236.2683 C258.2,261.1783 258.2,330.4883 258.2,330.4883 C258.2,330.4883 274.5525,330.4883 291.16,330.4883 C299.4638,330.4883 307.8313,330.4883 314.2503,330.4883 C315.0527,330.4883 315.8246,330.4883 316.5622,330.4883 C316.931,330.4883 311.2912,330.4883 311.6423,330.4883 " fill="none" id="*start*CompleteStateMachine_region_region_0_s1-to-CompleteStateMachine_region_region_0_s1_r2" style="stroke:#FFFFFF;stroke-width:1.0;"/><polygon fill="#FFFFFF" points="317.6423,330.4883,308.6423,326.4883,312.6423,330.4883,308.6423,334.4883,317.6423,330.4883" style="stroke:#FFFFFF;stroke-width:1.0;"/></g><!--link *start*CompleteStateMachine_region_region_0_s2_submachine_region_region_0_s2 to CompleteStateMachine_region_region_0_s2_submachine_region_region_0_s2_r1--><g id="link_*start*CompleteStateMachine_region_region_0_s2_submachine_region_region_0_s2_CompleteStateMachine_region_region_0_s2_submachine_region_region_0_s2_r1"><path d="M620.15,666.4883 C611.6,666.4883 599.7,666.4883 599.7,666.4883 C599.7,666.4883 599.7,671.9389 599.7,680.2427 C599.7,682.3186 599.7,684.5729 599.7,686.9648 C599.7,688.1608 599.7,689.3913 599.7,690.6511 C599.7,691.281 599.7,691.9182 599.7,692.5621 C599.7,692.8841 599.7,693.2077 599.7,693.533 C599.7,693.6956 599.7,687.8586 599.7,688.022 " fill="none" id="*start*CompleteStateMachine_region_region_0_s2_submachine_region_region_0_s2-to-CompleteStateMachine_region_region_0_s2_submachine_region_region_0_s2_r1" style="stroke:#FFFFFF;stroke-width:1.0;"/><polygon fill="#FFFFFF" points="599.7,694.022,603.7,685.022,599.7,689.022,595.7,685.022,599.7,694.022" style="stroke:#FFFFFF;stroke-width:1.0;"/></g><!--link *start*CompleteStateMachine_region_region_0_s2_submachine_region_region_0_s2_r1 to CompleteStateMachine_region_region_0_s2_submachine_region_region_0_s2_r1_s1--><g id="link_*start*CompleteStateMachine_region_region_0_s2_submachine_region_region_0_s2_r1_CompleteStateMachine_region_region_0_s2_submachine_region_region_0_s2_r1_s1"><path d="M633.7,772.6883 C633.7,785.0583 633.7,800.3483 633.7,817.2183 " fill="none" id="*start*CompleteStateMachine_region_region_0_s2_submachine_region_region_0_s2_r1-to-CompleteStateMachine_region_region_0_s2_submachine_region_region_0_s2_r1_s1" style="stroke:#FFFFFF;stroke-width:1.0;"/><polygon fill="#FFFFFF" points="633.7,823.2183,637.7,814.2183,633.7,818.2183,629.7,814.2183,633.7,823.2183" style="stroke:#FFFFFF;stroke-width:1.0;"/></g><!--link *start*CompleteStateMachine_region_region_0_s2_submachine_region_region_0_s2 to CompleteStateMachine_region_region_0_s2_submachine_region_region_0_s2_r2--><g id="link_*start*CompleteStateMachine_region_region_0_s2_submachine_region_region_0_s2_CompleteStateMachine_region_region_0_s2_submachine_region_region_0_s2_r2"><path d="M638.87,661.4883 C673.35,661.4883 783.7,661.4883 783.7,661.4883 C783.7,661.4883 783.7,667.2227 783.7,675.9588 C783.7,680.3268 783.7,685.4453 783.7,690.9726 C783.7,691.6635 783.7,692.3608 783.7,693.0638 C783.7,693.4154 783.7,687.7683 783.7,688.1226 " fill="none" id="*start*CompleteStateMachine_region_region_0_s2_submachine_region_region_0_s2-to-CompleteStateMachine_region_region_0_s2_submachine_region_region_0_s2_r2" style="stroke:#FFFFFF;stroke-width:1.0;"/><polygon fill="#FFFFFF" points="783.7,694.1226,787.7,685.1226,783.7,689.1226,779.7,685.1226,783.7,694.1226" style="stroke:#FFFFFF;stroke-width:1.0;"/></g><!--link *start*CompleteStateMachine_region_region_0_s2_submachine_region_region_0_s2_r2 to CompleteStateMachine_region_region_0_s2_submachine_region_region_0_s2_r2_s2--><g id="link_*start*CompleteStateMachine_region_region_0_s2_submachine_region_region_0_s2_r2_CompleteStateMachine_region_region_0_s2_submachine_region_region_0_s2_r2_s2"><path d="M827.95,763.4883 C830.59,763.4883 832.7,763.4883 832.7,763.4883 C832.7,763.4883 832.7,792.3683 832.7,817.4483 " fill="none" id="*start*CompleteStateMachine_region_region_0_s2_submachine_region_region_0_s2_r2-to-CompleteStateMachine_region_region_0_s2_submachine_region_region_0_s2_r2_s2" style="stroke:#FFFFFF;stroke-width:1.0;"/><polygon fill="#FFFFFF" points="832.7,823.4483,836.7,814.4483,832.7,818.4483,828.7,814.4483,832.7,823.4483" style="stroke:#FFFFFF;stroke-width:1.0;"/></g><!--link *start*CompleteStateMachine_region_region_0_s2 to CompleteStateMachine_region_region_0_s2_submachine_region_region_0_s2--><g id="link_*start*CompleteStateMachine_region_region_0_s2_CompleteStateMachine_region_region_0_s2_submachine_region_region_0_s2"><path d="M551.7,583.8083 C551.7,589.2108 551.7,596.2933 551.7,603.9714 C551.7,604.9312 551.7,605.9002 551.7,606.8765 C551.7,606.9985 551.7,601.1207 551.7,601.2429 " fill="none" id="*start*CompleteStateMachine_region_region_0_s2-to-CompleteStateMachine_region_region_0_s2_submachine_region_region_0_s2" style="stroke:#FFFFFF;stroke-width:1.0;"/><polygon fill="#FFFFFF" points="551.7,607.2429,555.7,598.2429,551.7,602.2429,547.7,598.2429,551.7,607.2429" style="stroke:#FFFFFF;stroke-width:1.0;"/></g><!--link CompleteStateMachine_region_region_0_s2_submachine_region_region_0_entry_point_to_r2_s2 to CompleteStateMachine_region_region_0_s2_submachine_region_region_0_s2_r2_s2--><g id="link_CompleteStateMachine_region_region_0_s2_submachine_region_region_0_entry_point_to_r2_s2_CompleteStateMachine_region_region_0_s2_submachine_region_region_0_s2_r2_s2"><path d="M908.4,330.4883 C890.01,330.4883 837.7,330.4883 837.7,330.4883 C837.7,330.4883 837.7,713.1583 837.7,817.1583 " fill="none" id="CompleteStateMachine_region_region_0_s2_submachine_region_region_0_entry_point_to_r2_s2-to-CompleteStateMachine_region_region_0_s2_submachine_region_region_0_s2_r2_s2" style="stroke:#FFFFFF;stroke-width:1.0;"/><polygon fill="#FFFFFF" points="837.7,823.1583,841.7,814.1583,837.7,818.1583,833.7,814.1583,837.7,823.1583" style="stroke:#FFFFFF;stroke-width:1.0;"/></g><!--link CompleteStateMachine_region_region_0_s2_submachine_region_region_0_entry_point_to_r1_s2_and_r2_s1 to CompleteStateMachine_region_region_0_s2_submachine_region_region_0_s2_r1_s2--><g id="link_CompleteStateMachine_region_region_0_s2_submachine_region_region_0_entry_point_to_r1_s2_and_r2_s1_CompleteStateMachine_region_region_0_s2_submachine_region_region_0_s2_r1_s2"><path d="M686.7,329.5683 C686.7,335.2383 686.7,639.1883 686.7,731.0783 " fill="none" id="CompleteStateMachine_region_region_0_s2_submachine_region_region_0_entry_point_to_r1_s2_and_r2_s1-to-CompleteStateMachine_region_region_0_s2_submachine_region_region_0_s2_r1_s2" style="stroke:#FFFFFF;stroke-width:1.0;"/><polygon fill="#FFFFFF" points="686.7,737.0783,690.7,728.0783,686.7,732.0783,682.7,728.0783,686.7,737.0783" style="stroke:#FFFFFF;stroke-width:1.0;"/></g><!--link CompleteStateMachine_region_region_0_s2_submachine_region_region_0_entry_point_to_r1_s2_and_r2_s1 to CompleteStateMachine_region_region_0_s2_submachine_region_region_0_s2_r2_s1--><g id="link_CompleteStateMachine_region_region_0_s2_submachine_region_region_0_entry_point_to_r1_s2_and_r2_s1_CompleteStateMachine_region_region_0_s2_submachine_region_region_0_s2_r2_s1"><path d="M792.2,329.5683 C792.2,335.9583 792.2,745.4883 792.2,745.4883 C792.2,745.4883 816.48,745.4883 839.43,745.4883 " fill="none" id="CompleteStateMachine_region_region_0_s2_submachine_region_region_0_entry_point_to_r1_s2_and_r2_s1-to-CompleteStateMachine_region_region_0_s2_submachine_region_region_0_s2_r2_s1" style="stroke:#FFFFFF;stroke-width:1.0;"/><polygon fill="#FFFFFF" points="845.43,745.4883,836.43,741.4883,840.43,745.4883,836.43,749.4883,845.43,745.4883" style="stroke:#FFFFFF;stroke-width:1.0;"/></g><!--link *start*CompleteStateMachine to CompleteStateMachine_region_region_0_s0--><g id="link_*start*CompleteStateMachine_CompleteStateMachine_region_region_0_s0"><path d="M527.7,64.9683 C527.7,74.2183 527.7,82.0983 527.7,94.2283 " fill="none" id="*start*CompleteStateMachine-to-CompleteStateMachine_region_region_0_s0" style="stroke:#FFFFFF;stroke-width:1.0;"/><polygon fill="#FFFFFF" points="527.7,100.2283,531.7,91.2283,527.7,95.2283,523.7,91.2283,527.7,100.2283" style="stroke:#FFFFFF;stroke-width:1.0;"/></g><!--link CompleteStateMachine_region_region_0_s0_fork to CompleteStateMachine_region_region_0_s1_r1_s1--><g id="link_CompleteStateMachine_region_region_0_s0_fork_CompleteStateMachine_region_region_0_s1_r1_s1"><path d="M487.31,228.4883 C428.36,228.4883 325.7,228.4883 325.7,228.4883 C325.7,228.4883 325.7,317.4883 325.7,317.4883 C325.7,317.4883 288.92,317.4883 260.18,317.4883 " fill="none" id="CompleteStateMachine_region_region_0_s0_fork-to-CompleteStateMachine_region_region_0_s1_r1_s1" style="stroke:#FFFFFF;stroke-width:1.0;"/><polygon fill="#FFFFFF" points="254.18,317.4883,263.18,321.4883,259.18,317.4883,263.18,313.4883,254.18,317.4883" style="stroke:#FFFFFF;stroke-width:1.0;"/></g><!--link CompleteStateMachine_region_region_0_s0_fork to CompleteStateMachine_region_region_0_s1_r2_s2--><g id="link_CompleteStateMachine_region_region_0_s0_fork_CompleteStateMachine_region_region_0_s1_r2_s2"><path d="M499.2,231.7883 C499.2,259.9283 499.2,416.4883 499.2,416.4883 C499.2,416.4883 442.62,416.4883 406.19,416.4883 " fill="none" id="CompleteStateMachine_region_region_0_s0_fork-to-CompleteStateMachine_region_region_0_s1_r2_s2" style="stroke:#FFFFFF;stroke-width:1.0;"/><polygon fill="#FFFFFF" points="400.19,416.4883,409.19,420.4883,405.19,416.4883,409.19,412.4883,400.19,416.4883" style="stroke:#FFFFFF;stroke-width:1.0;"/></g><!--link CompleteStateMachine_region_region_0_s1_join to CompleteStateMachine_region_region_0_s2--><g id="link_CompleteStateMachine_region_region_0_s1_join_CompleteStateMachine_region_region_0_s2"><path d="M59.7,419.7383 C59.7,445.0283 59.7,574.4883 59.7,574.4883 C59.7,574.4883 170.94,574.4883 283.05,574.4883 C339.105,574.4883 395.3775,574.4883 438.0712,574.4883 C459.4181,574.4883 477.3703,574.4883 490.2033,574.4883 C491.8074,574.4883 487.3315,574.4883 488.7723,574.4883 " fill="none" id="CompleteStateMachine_region_region_0_s1_join-to-CompleteStateMachine_region_region_0_s2" style="stroke:#FFFFFF;stroke-width:1.0;"/><polygon fill="#FFFFFF" points="494.7723,574.4883,485.7723,570.4883,489.7723,574.4883,485.7723,578.4883,494.7723,574.4883" style="stroke:#FFFFFF;stroke-width:1.0;"/></g><!--link CompleteStateMachine_region_region_0_s1_r1_s1 to CompleteStateMachine_region_region_0_s1_r1_s2--><g id="link_CompleteStateMachine_region_region_0_s1_r1_s1_CompleteStateMachine_region_region_0_s1_r1_s2"><path d="M220.37,354.8283 C220.37,365.9283 220.37,372.9183 220.37,384.0383 " fill="none" id="CompleteStateMachine_region_region_0_s1_r1_s1-to-CompleteStateMachine_region_region_0_s1_r1_s2" style="stroke:#FFFFFF;stroke-width:1.0;"/><polygon fill="#FFFFFF" points="220.37,390.0383,224.37,381.0383,220.37,385.0383,216.37,381.0383,220.37,390.0383" style="stroke:#FFFFFF;stroke-width:1.0;"/><text fill="#000000" font-family="sans-serif" font-size="13" lengthAdjust="spacing" textLength="15" x="204.37" y="368.9966">e1</text></g><!--link CompleteStateMachine_region_region_0_s1_r1_s2 to CompleteStateMachine_region_region_0_s1_r1_s1--><g id="link_CompleteStateMachine_region_region_0_s1_r1_s2_CompleteStateMachine_region_region_0_s1_r1_s1"><path d="M237.03,390.1483 C237.03,379.0483 237.03,372.0583 237.03,360.9383 " fill="none" id="CompleteStateMachine_region_region_0_s1_r1_s2-to-CompleteStateMachine_region_region_0_s1_r1_s1" style="stroke:#FFFFFF;stroke-width:1.0;"/><polygon fill="#FFFFFF" points="237.03,354.9383,233.03,363.9383,237.03,359.9383,241.03,363.9383,237.03,354.9383" style="stroke:#FFFFFF;stroke-width:1.0;"/><text fill="#000000" font-family="sans-serif" font-size="13" lengthAdjust="spacing" textLength="97" x="238.03" y="369.1166">after&lt;0:00:01&gt;</text></g><!--link CompleteStateMachine_region_region_0_s1_r2_s2 to CompleteStateMachine_region_region_0_s1_r2_s1--><g id="link_CompleteStateMachine_region_region_0_s1_r2_s2_CompleteStateMachine_region_region_0_s1_r2_s1"><path d="M374.7,390.1483 C374.7,379.0483 374.7,372.0583 374.7,360.9383 " fill="none" id="CompleteStateMachine_region_region_0_s1_r2_s2-to-CompleteStateMachine_region_region_0_s1_r2_s1" style="stroke:#FFFFFF;stroke-width:1.0;"/><polygon fill="#FFFFFF" points="374.7,354.9383,370.7,363.9383,374.7,359.9383,378.7,363.9383,374.7,354.9383" style="stroke:#FFFFFF;stroke-width:1.0;"/><text fill="#000000" font-family="sans-serif" font-size="13" lengthAdjust="spacing" textLength="15" x="358.7" y="369.1166">e2</text></g><!--link CompleteStateMachine_region_region_0_s1_r2_s1 to CompleteStateMachine_region_region_0_s1_r2_s2--><g id="link_CompleteStateMachine_region_region_0_s1_r2_s1_CompleteStateMachine_region_region_0_s1_r2_s2"><path d="M387.2,354.8283 C387.2,365.9283 387.2,372.9183 387.2,384.0383 " fill="none" id="CompleteStateMachine_region_region_0_s1_r2_s1-to-CompleteStateMachine_region_region_0_s1_r2_s2" style="stroke:#FFFFFF;stroke-width:1.0;"/><polygon fill="#FFFFFF" points="387.2,390.0383,391.2,381.0383,387.2,385.0383,383.2,381.0383,387.2,390.0383" style="stroke:#FFFFFF;stroke-width:1.0;"/><text fill="#000000" font-family="sans-serif" font-size="13" lengthAdjust="spacing" textLength="93" x="388.2" y="368.9966">when&#171;lambda&#187;</text></g><!--link CompleteStateMachine_region_region_0_s2_submachine_region_region_0_s2_r2_s2 to CompleteStateMachine_region_region_0_s2_submachine_region_region_0_exit_point_from_r2_s2--><g id="link_CompleteStateMachine_region_region_0_s2_submachine_region_region_0_s2_r2_s2_CompleteStateMachine_region_region_0_s2_submachine_region_region_0_exit_point_from_r2_s2"><path d="M851.7,873.7583 C851.7,908.8883 851.7,964.3483 851.7,983.5683 " fill="none" id="CompleteStateMachine_region_region_0_s2_submachine_region_region_0_s2_r2_s2-to-CompleteStateMachine_region_region_0_s2_submachine_region_region_0_exit_point_from_r2_s2" style="stroke:#FFFFFF;stroke-width:1.0;"/><polygon fill="#FFFFFF" points="851.7,989.5683,855.7,980.5683,851.7,984.5683,847.7,980.5683,851.7,989.5683" style="stroke:#FFFFFF;stroke-width:1.0;"/><text fill="#000000" font-family="sans-serif" font-size="13" lengthAdjust="spacing" textLength="71" x="779.7" y="928.2366">completion</text></g><!--link CompleteStateMachine_region_region_0_s1_r1_s1 to CompleteStateMachine_region_region_0_s1_join--><g id="link_CompleteStateMachine_region_region_0_s1_r1_s1_CompleteStateMachine_region_region_0_s1_join"><path d="M203.35,343.4883 C153.25,343.4883 46.37,343.4883 46.37,343.4883 C46.37,343.4883 46.37,389.6983 46.37,405.1983 " fill="none" id="CompleteStateMachine_region_region_0_s1_r1_s1-to-CompleteStateMachine_region_region_0_s1_join" style="stroke:#FFFFFF;stroke-width:1.0;"/><polygon fill="#FFFFFF" points="46.37,411.1983,50.37,402.1983,46.37,406.1983,42.37,402.1983,46.37,411.1983" style="stroke:#FFFFFF;stroke-width:1.0;"/><text fill="#000000" font-family="sans-serif" font-size="13" lengthAdjust="spacing" textLength="71" x="19" y="340.0566">completion</text></g><!--link CompleteStateMachine_region_region_0_s1_r2_s1 to CompleteStateMachine_region_region_0_s1_join--><g id="link_CompleteStateMachine_region_region_0_s1_r2_s1_CompleteStateMachine_region_region_0_s1_join"><path d="M362.2,354.8283 C362.2,364.6083 362.2,373.4883 362.2,373.4883 C362.2,373.4883 73.03,373.4883 73.03,373.4883 C73.03,373.4883 73.03,394.1583 73.03,404.9983 " fill="none" id="CompleteStateMachine_region_region_0_s1_r2_s1-to-CompleteStateMachine_region_region_0_s1_join" style="stroke:#FFFFFF;stroke-width:1.0;"/><polygon fill="#FFFFFF" points="73.03,410.9983,77.03,401.9983,73.03,405.9983,69.03,401.9983,73.03,410.9983" style="stroke:#FFFFFF;stroke-width:1.0;"/><text fill="#000000" font-family="sans-serif" font-size="13" lengthAdjust="spacing" textLength="71" x="136.19" y="387.0566">completion</text></g><!--link CompleteStateMachine_region_region_0_s1 to CompleteStateMachine_region_region_0_s2_submachine_region_region_0_s2--><g id="link_CompleteStateMachine_region_region_0_s1_CompleteStateMachine_region_region_0_s2_submachine_region_region_0_s2"><path d="M131.7,505.993 C131.7,507.588 131.7,509.1782 131.7,510.7631 C131.7,517.1029 131.7,523.3592 131.7,529.5073 C131.7,554.0999 131.7,576.962 131.7,596.5147 C131.7,635.6202 131.7,661.4883 131.7,661.4883 C131.7,661.4883 235.065,661.4883 339.2375,661.4883 C391.3237,661.4883 443.6119,661.4883 483.2822,661.4883 C503.1173,661.4883 519.798,661.4883 531.7218,661.4883 C534.7028,661.4883 537.3864,661.4883 539.7477,661.4883 C540.9284,661.4883 536.0284,661.4883 537.0448,661.4883 " fill="none" id="CompleteStateMachine_region_region_0_s1-to-CompleteStateMachine_region_region_0_s2_submachine_region_region_0_s2" style="stroke:#FFFFFF;stroke-width:1.0;"/><polygon fill="#FFFFFF" points="543.0448,661.4883,534.0448,657.4883,538.0448,661.4883,534.0448,665.4883,543.0448,661.4883" style="stroke:#FFFFFF;stroke-width:1.0;"/><text fill="#000000" font-family="sans-serif" font-size="13" lengthAdjust="spacing" textLength="15" x="115.7" y="651.3666">e3</text></g><!--link CompleteStateMachine_region_region_0_s0 to CompleteStateMachine_region_region_0_s0_fork--><g id="link_CompleteStateMachine_region_region_0_s0_CompleteStateMachine_region_region_0_s0_fork"><path d="M527.7,150.9683 C527.7,175.5083 527.7,204.6883 527.7,217.0183 " fill="none" id="CompleteStateMachine_region_region_0_s0-to-CompleteStateMachine_region_region_0_s0_fork" style="stroke:#FFFFFF;stroke-width:1.0;"/><polygon fill="#FFFFFF" points="527.7,223.0183,531.7,214.0183,527.7,218.0183,523.7,214.0183,527.7,223.0183" style="stroke:#FFFFFF;stroke-width:1.0;"/><text fill="#000000" font-family="sans-serif" font-size="13" lengthAdjust="spacing" textLength="15" x="511.7" y="183.5566">e2</text></g><!--SRC=[rLXTQzim57tNhxXqB-qWdQsCCem9MzDrq3Mih1zx6CCejf9ejQKWo-d2o7-VREV3CKaT6Rjq9c2GTC-vFlVe2YL-P7nA98aWP9og-PI2a6eYKBoU85AAfxu8XOId2LEqC3Ka_kDOYeG7-VmRAtiAApxvYisOcfyJMOHmOpKFQG_vJFeXXRy8z5D6ovSkaFjkkNe3Uwk8sXSs3FL0DdCfk2f2PQk53AZS9e0uWplgYsWQKaKpz07n9rgI8o0nx9h8sPUHiRLtdIVfc0c-UbbUR2qJJvz54SGs0B4t83_V_e9EftTee2VjLUIIM1eHw_Z21nHnObEShSyeFOlT5DYO0XzAiQWjA2uBQfWbRaXGtBwWk8wWMox7RfmCevoYPq1UeAsJkqvyJViiU1qFL80NjbpzZLVDiQykTTnKpVQSr_PQ0jghOCLchqofwOfhVT0X_0tpujrEQrHe_A9Emw_FQVWrEIrD1hLum5KaK6hAb2ivzwQ2SUKfaMUNITy4sovmSDri-2OTxVLMwRJ5rd3Xe4A-jATvX0VvDcXDo6sQbvEqnDji_zs8-rzbdk6LRV67gINvI8gewMsr2pqrWHulUI3h8MRzmzgwA7aZ8HzDCiyZT3RfAq_4AD3iQhJIlZsAzQvV7vRURwsnYIHvX9OaVPb8iWmqC6kMgIwwcOAcccC7g8qChtN6XNM0Z1ILhkLO-cVta67HJCki2Ib6XjStOoyvy3IXt7L34Wq3qZlugmuxdXhgQpixZ0D-ZgpNjEcmrFCrkV2BSJLtWcZNTT71_qKPzF6isUMU_aXva4GXGZSXuUf-S0qpAcEz4EnJRE7kgMqV_w01tD8fs5tzS_2Pq-r2_-8EqlaJTFpbvXfYaKYVGi1Y9TamIGKxGLTaHk1xmXMBg0FVffHVNNnT3S1dFcDIy4YVn-ZgOR1PSFQ-SywKPfGw5NWOe0iw8aceT8Gl0iR73jpVNNO-e6l2nmaPQspAKLyawS6kvsx_0G00]--></g></svg>